<svg width="194" height="28" fill="none" xmlns="http://www.w3.org/2000/svg"><g clip-path="url(#clip0)"><path fill-rule="evenodd" clip-rule="evenodd" d="M7.827.007c-2.866 0-4.41 1.607-4.41 3.945v5.261H-.002v2.339h3.42V27.48h2.866V11.552h3.71V9.213h-3.71V4.647c0-1.68 1.102-1.863 2.13-1.863.53-.018 1.06.02 1.583.11V.117a12.164 12.164 0 00-2.17-.11zm15.249 8.914h-.993c-2.351 0-4.189 1.315-5.328 4.312h-.074V9.215H13.89v18.264h2.866v-8.621c0-5.407 2.462-6.941 5.438-6.941h.883V8.92zm11.573-.22c-6.063 0-9.48 4.677-9.48 9.646 0 5.15 3.086 9.644 9.48 9.644 6.1 0 9.48-4.712 9.48-9.644 0-5.152-3.086-9.645-9.48-9.645zm-6.394 9.646c0-4.238 2.536-7.088 6.357-7.088 4.042 0 6.43 2.994 6.43 7.088 0 4.164-2.461 7.087-6.393 7.087-3.858 0-6.394-2.85-6.394-7.087zM57.062 8.92c-2.462 0-4.115.913-5.511 3.215h-.074V9.213h-2.829v18.265h2.866V16.446c0-2.74 1.8-4.968 4.446-4.968 2.904 0 3.822 1.462 3.822 4.274V27.48h2.866V16.409c0-2.813 1.911-4.931 4.338-4.931 2.829 0 3.93 1.278 3.93 4.237V27.48h2.865V14.985c0-3.872-2.02-6.064-6.026-6.064-2.609 0-4.338.986-5.622 3.58-.845-2.338-2.572-3.58-5.07-3.58zM89.876.007V27.48h3.086V14.766h14.111V27.48h3.086V.007h-3.086V11.99H92.959V.007h-3.086.003zm34.65 8.695c-6.063 0-9.48 4.676-9.48 9.645 0 5.15 3.086 9.644 9.48 9.644 6.1 0 9.481-4.712 9.481-9.644-.005-5.152-3.092-9.645-9.488-9.645h.007zm-6.394 9.645c0-4.238 2.536-7.088 6.357-7.088 4.043 0 6.43 2.994 6.43 7.088 0 4.164-2.461 7.087-6.393 7.087-3.863 0-6.398-2.85-6.398-7.087h.004zm28.807-9.426c-2.462 0-4.116.913-5.511 3.215h-.074V9.213h-2.829v18.265h2.866V16.446c0-2.74 1.801-4.968 4.446-4.968 2.903 0 3.822 1.462 3.822 4.274V27.48h2.866V16.409c0-2.813 1.911-4.931 4.338-4.931 2.829 0 3.929 1.278 3.929 4.237V27.48h2.866V14.985c0-3.872-2.021-6.064-6.026-6.064-2.609 0-4.338.986-5.622 3.58-.849-2.338-2.576-3.58-5.075-3.58h.004zm30.019-.22c-5.659 0-8.782 4.53-8.782 10.34 0 5.078 3.491 8.95 8.635 8.95 3.932 0 6.725-1.863 8.451-5.663l-2.939-.438a5.42 5.42 0 01-2.099 2.645 5.467 5.467 0 01-3.266.899c-3.271 0-5.696-2.375-5.696-6.43h14.479v-.803c-.005-6.138-3.496-9.5-8.788-9.5h.005zm-5.622 7.966c.331-3.25 2.572-5.406 5.659-5.406 3.234 0 5.218 1.936 5.659 5.406h-11.323.005zm20.613 7.161c-.407 0-.805.12-1.144.345a2.044 2.044 0 00-.874 2.1 2.057 2.057 0 001.616 1.607 2.07 2.07 0 001.189-.116 2.053 2.053 0 001.27-1.89 2.033 2.033 0 00-1.272-1.894 2.07 2.07 0 00-.79-.154l.005.002z" fill="#000"/></g><defs><clipPath id="clip0"><path fill="#fff" d="M0 0h194v28H0z"/></clipPath></defs></svg>