<svg width="120" height="32" fill="none" xmlns="http://www.w3.org/2000/svg"><g clip-path="url(#clip0)"><path d="M29.418 7.932h.931v2.657h-.804c-3.344 0-4.783 2.279-4.783 6.118v7.763h-2.54V8.185h2.498v3.586h.084c.55-1.73 1.863-3.84 4.614-3.84zM100.656 0a1.939 1.939 0 00-1.947 1.94c0 1.055.847 1.941 1.947 1.941a1.939 1.939 0 001.947-1.94C102.561.844 101.714 0 100.656 0zm13.884 7.932c-2.328 0-4.064.928-5.207 3.037h-.084V8.227h-2.54V24.47h2.54v-9.03c0-3.375 2.201-5.189 4.571-5.189 1.82 0 3.598 1.055 3.598 4.43v9.788h2.54V13.543c.042-4.599-3.471-5.611-5.418-5.611zM99.386 24.47h2.54V8.185h-2.54V24.47zm-10.2-16.538c-2.795 0-4.064 1.35-4.996 3.206-.423-1.224-1.523-3.206-4.486-3.206-2.836 0-4.064 1.476-4.91 2.868h-.085V8.185h-2.497V24.47h2.54v-9.83c0-2.658 1.82-4.43 3.936-4.43 2.455 0 3.428 1.097 3.428 3.797V24.47h2.54v-9.83c0-2.658 1.82-4.43 3.81-4.43 2.54 0 3.513 1.097 3.513 3.797V24.47h2.54V13.332c.042-3.46-1.778-5.4-5.334-5.4zm-20.53 8.395c0 4.768-3.852 8.607-8.635 8.607-4.783 0-8.635-3.84-8.635-8.607 0-4.767 3.852-8.606 8.635-8.606 4.783 0 8.635 3.881 8.635 8.606zm-2.624 0c0-3.29-2.71-5.99-6.01-5.99-3.302 0-6.011 2.7-6.011 5.99 0 3.291 2.709 5.991 6.01 5.991 3.344 0 6.01-2.658 6.01-5.99zm-17.355 0c0 4.768-3.852 8.607-8.635 8.607-4.783 0-8.635-3.84-8.635-8.607 0-4.767 3.852-8.606 8.635-8.606 4.783 0 8.635 3.881 8.635 8.606zm-2.582 0c0-3.29-2.709-5.99-6.01-5.99-3.302 0-6.01 2.7-6.01 5.99 0 3.291 2.708 5.991 6.01 5.991 3.301 0 6.01-2.658 6.01-5.99zm-28.74-8.142v14.724c0 5.062-2.37 8.395-8.466 8.395-3.767 0-6.392-1.772-6.857-4.81h2.836c.38 1.182 1.312 2.532 4.106 2.532 4.529 0 5.756-2.826 5.84-6.413v-.295a8.512 8.512 0 01-6.137 2.574C3.852 24.934 0 21.095 0 16.327c0-4.767 3.852-8.606 8.635-8.606a8.646 8.646 0 016.18 2.615V8.185h2.54zm-2.71 8.142c0-3.29-2.708-5.99-6.01-5.99-3.302 0-6.01 2.7-6.01 5.99 0 3.291 2.708 5.991 6.01 5.991 3.302 0 6.01-2.658 6.01-5.99z" fill="#3E3A39"/></g><defs><clipPath id="clip0"><path fill="#fff" d="M0 0h120v31.304H0z"/></clipPath></defs></svg>